<?xml version="1.0" encoding="UTF-8" standalone="no"?>
<!-- Created with Inkscape (http://www.inkscape.org/) -->

<svg
   xmlns:dc="http://purl.org/dc/elements/1.1/"
   xmlns:cc="http://creativecommons.org/ns#"
   xmlns:rdf="http://www.w3.org/1999/02/22-rdf-syntax-ns#"
   xmlns:svg="http://www.w3.org/2000/svg"
   xmlns="http://www.w3.org/2000/svg"
   xmlns:sodipodi="http://sodipodi.sourceforge.net/DTD/sodipodi-0.dtd"
   xmlns:inkscape="http://www.inkscape.org/namespaces/inkscape"
   version="1.1"
   id="svg12"
   width="1000"
   height="765"
   viewBox="0 0 1000 765"
   sodipodi:docname="logo.svg"
   inkscape:version="0.92.2 (5c3e80d, 2017-08-06)">
  <metadata
     id="metadata18">
    <rdf:RDF>
      <cc:Work
         rdf:about="">
        <dc:format>image/svg+xml</dc:format>
        <dc:type
           rdf:resource="http://purl.org/dc/dcmitype/StillImage" />
        <dc:title></dc:title>
      </cc:Work>
    </rdf:RDF>
  </metadata>
  <defs
     id="defs16" />
  <sodipodi:namedview
     pagecolor="#ffffff"
     bordercolor="#666666"
     borderopacity="1"
     objecttolerance="10"
     gridtolerance="10"
     guidetolerance="10"
     inkscape:pageopacity="0"
     inkscape:pageshadow="2"
     inkscape:window-width="1366"
     inkscape:window-height="768"
     id="namedview14"
     showgrid="false"
     inkscape:measure-start="0,0"
     inkscape:measure-end="0,0"
     inkscape:snap-bbox="true"
     inkscape:zoom="0.5"
     inkscape:cx="-2.6533976"
     inkscape:cy="137.08671"
     inkscape:window-x="-8"
     inkscape:window-y="-31"
     inkscape:window-maximized="1"
     inkscape:current-layer="svg12" />
  <path
     style="fill:#000000;stroke-width:1.76056337"
     d="M 346.84013,743.03925 C 314.94995,738.19502 302.64763,735.2967 278.79782,727.00909 147.30002,681.31465 54.320135,568.97018 33.413096,430.51897 32.023995,421.32002 30.872055,408.84203 30.853228,402.79009 l -0.03423,-11.00352 h 80.906141 80.90614 l 0.88208,5.72183 c 0.48514,3.14701 1.73428,15.67832 2.77586,27.84736 1.04159,12.16904 2.57554,26.03348 3.40879,30.80986 4.94124,28.32433 10.55433,51.85152 18.59967,77.9601 1.59593,5.17913 2.64975,9.64476 2.34179,9.92361 -0.30795,0.27885 -10.46308,3.79897 -22.56695,7.8225 -12.10387,4.02352 -29.15345,10.80848 -37.88794,15.07768 -17.24751,8.43016 -37.81629,21.53175 -37.81629,24.08764 0,2.29238 7.42644,12.01703 9.17706,12.01703 0.80995,0 6.47128,-3.15694 12.58075,-7.01541 6.10946,-3.85848 18.56803,-10.53042 27.68572,-14.82653 13.8604,-6.53081 23.53185,-10.04171 53.8588,-19.55162 1.13845,-0.35699 3.51521,3.05646 5.28169,7.58546 6.95799,17.8394 25.58158,53.19678 36.98155,70.21048 29.15831,43.51686 62.9629,74.4989 103.42903,94.79309 10.58261,5.30727 20.83854,9.6496 22.791,9.6496 1.95245,0 5.77196,-2.12886 8.48778,-4.73079 3.49666,-3.35002 4.93789,-3.95345 4.93789,-2.06747 0,1.46484 -1.83362,4.38595 -4.07473,6.49137 -3.47645,3.26594 -5.99687,3.80089 -17.1655,3.64323 -7.19991,-0.10164 -24.97456,-1.99 -39.4992,-4.19634 z"
     id="path34"
     inkscape:connector-curvature="0" />
  <path
     style="fill:#000000;stroke-width:1.76056337"
     d="M 30.857158,351.73376 C 30.999687,313.92154 45.890154,257.75316 67.26354,214.40511 116.01308,115.53459 198.22269,48.278269 307.62395,17.76439 326.60057,12.471488 373.2021,6.3871215 394.37534,6.4379965 l 7.04225,0.01692 -8.80282,2.406688 C 359.20333,17.996286 310.04335,52.871127 280.30037,88.539154 259.6622,113.28861 234.10152,157.07593 226.35053,180.95911 c -1.17845,3.63116 -3.19813,6.60211 -4.48817,6.60211 -4.64098,0 -35.10926,-10.74862 -49.10917,-17.32477 -7.86134,-3.69269 -19.72203,-10.02005 -26.35709,-14.06081 -6.63505,-4.04075 -12.41689,-7.34681 -12.84853,-7.34681 -1.52271,0 -9.30818,9.70951 -9.36308,11.67701 -0.15475,5.54639 36.5557,24.58892 70.77398,36.71202 13.97963,4.9528 21.47479,8.48127 21.24516,10.00149 -0.19514,1.29191 -2.01233,7.89469 -4.03819,14.67286 -9.83731,32.91398 -19.35045,96.25521 -19.36853,128.96126 l -0.006,11.00353 h -80.986 -80.985911 z"
     id="path36"
     inkscape:connector-curvature="0" />
  <path
     style="fill:#000000;stroke-width:1.76056337"
     d="m 473.82912,744.33939 c -4.07671,-4.61993 -1.08359,-10.9882 5.19724,-11.05782 45.57995,-0.50517 95.35104,-10.63419 136.06024,-27.68993 52.63154,-22.05075 105.47557,-62.76966 139.90414,-107.80295 15.25275,-19.95094 36.82254,-55.60583 35.21391,-58.20867 -1.16787,-1.88964 -381.25435,-1.10906 -384.32595,0.78928 -1.53072,0.94604 -2.0597,25.28074 -2.0597,94.75178 0,93.3563 -0.005,93.47465 -3.51988,90.29338 -1.93593,-1.75201 -8.89343,-5.63799 -15.46108,-8.63555 -39.47444,-18.01656 -72.49372,-47.89982 -101.76585,-92.10056 -11.81772,-17.84468 -34.18277,-61.95169 -34.18277,-67.4132 0,-3.98877 99.58174,-17.17088 132.4824,-17.53733 4.55643,-0.0507 4.84154,-0.52047 4.84154,-7.97646 v -7.92253 h -18.414 c -10.12769,0 -24.19019,0.75975 -31.25,1.68836 -7.05979,0.92859 -21.55078,2.556 -32.20219,3.61644 -17.81191,1.77337 -39.60264,5.17203 -55.83032,8.70778 -6.47032,1.40979 -6.56007,1.35226 -9.13184,-5.85426 -11.54663,-32.35552 -21.79687,-83.63561 -24.94506,-124.79565 l -1.17826,-15.40493 h 23.09555 23.09556 V 376.82178 361.857 h -23.16296 -23.16295 l 1.11317,-26.8486 c 1.11655,-26.93012 5.45092,-57.89236 12.01489,-85.82746 3.20649,-13.64625 10.06487,-36.99678 11.29306,-38.44909 0.48418,-0.57253 12.13674,1.55171 28.94704,5.27701 24.66003,5.46486 78.13172,9.94122 106.1757,8.88845 l 13.74612,-0.51604 -0.54189,-6.52621 -0.5419,-6.52623 -29.04929,-2.03402 c -35.24373,-2.46774 -73.98465,-7.46831 -102.57666,-13.2403 -12.06725,-2.43607 -12.1735,-0.62704 1.73964,-29.62005 9.22036,-19.21391 25.96917,-46.4089 36.86598,-59.85916 25.76385,-31.801073 60.3815,-58.288587 95.58266,-73.134557 7.94301,-3.349937 14.7681,-6.090794 15.16686,-6.090794 0.39877,0 0.93023,40.999119 1.18102,91.109161 l 0.45599,91.10915 16.72535,1.44687 c 16.23329,1.40429 362.55018,0.14613 364.01879,-1.32245 1.36167,-1.36169 -13.24227,-24.66405 -27.11058,-43.25822 C 715.62817,109.17741 656.76516,66.888672 586.73417,43.153445 560.2997,34.194155 510.54428,25.589385 485.17338,25.589385 c -12.27413,0 -15.99125,-2.638893 -12.61178,-8.953493 2.04113,-3.813872 2.57816,-3.872326 25.21022,-2.744103 69.35922,3.457603 134.75626,26.269621 192.13873,67.022485 42.57037,30.233366 81.79475,74.285296 105.93315,118.970886 l 5.23063,9.6831 101.69102,0.88028 c 98.09165,0.84912 101.77945,1.00125 104.18925,4.29777 1.374,1.87961 2.4982,4.16942 2.4982,5.08843 0,0.91903 -5.4733,12.84947 -12.16297,26.5121 -34.02801,69.49732 -54.73844,112.62584 -54.73844,113.99035 0,0.8359 -18.61795,1.51981 -41.37324,1.51981 h -41.37324 v 14.92677 14.92676 l 33.19265,0.47817 33.19264,0.47815 -13.5921,28.16902 c -7.47565,15.49296 -21.62009,44.6591 -31.43208,64.81366 -9.81199,20.15454 -17.83998,38.57444 -17.83998,40.9331 0,2.35864 -1.58451,5.87296 -3.52113,7.80958 -3.18547,3.18547 -5.86853,3.52112 -28.14688,3.52112 h -24.62576 l -6.41107,12.76409 c -8.21227,16.35012 -26.6563,44.51084 -39.49336,60.29929 -34.42786,42.34315 -74.49412,74.60183 -120.77009,97.23599 -42.48347,20.77921 -73.60201,30.0543 -120.23535,35.83697 -34.34502,4.25887 -42.74446,4.31144 -46.29328,0.28972 z M 433.74858,510.6246 c 0,-6.12937 0.0419,-6.16197 7.92253,-6.16197 7.88062,0 7.92254,0.0326 7.92254,6.16197 v 6.16197 h 11.44366 11.44366 v -10.4759 c 0,-7.4741 -0.75555,-10.89871 -2.63672,-11.95147 -1.9209,-1.075 -3.60585,-9.34367 -6.20641,-30.4572 -1.96331,-15.9399 -4.00805,-30.39601 -4.54386,-32.12469 -0.8619,-2.78076 -2.93702,-3.08517 -18.00135,-2.64084 l -17.02715,0.50222 -1.96768,14.96478 c -5.33681,40.5884 -6.75442,48.50444 -8.92239,49.8234 -1.49481,0.90944 -2.31416,5.11696 -2.31416,11.8838 v 10.4759 h 11.44366 11.44367 z M 331.4566,500.22849 c 3.10612,-2.81519 3.70043,-5.38688 3.70043,-16.01234 0,-10.50072 -0.61154,-13.21192 -3.58756,-15.90519 -3.11331,-2.8175 -3.22967,-3.44696 -0.88028,-4.76175 2.0809,-1.16454 2.70727,-4.74413 2.70727,-15.47151 0,-18.71678 -0.69216,-18.15862 -26.89162,-18.31845 l -19.76331,-0.12056 -0.47558,37.56022 -0.47559,37.56023 20.9829,-0.58839 c 17.6396,-0.49465 21.57251,-1.12279 24.68334,-3.94226 z m 58.27789,-33.61797 V 428.7584 h -11.44366 -11.44366 v 37.85212 37.85211 h 11.44366 11.44366 z m 123.38564,19.80633 c -0.29826,-14.52216 0.0701,-17.16549 2.39147,-17.16549 2.30291,0 2.74402,2.84361 2.74402,17.68965 v 17.68963 l 11.00352,-0.52414 11.00352,-0.52415 v -36.97183 -36.97183 l -11.00352,-0.52416 -11.00352,-0.52414 v 15.04879 c 0,12.4748 -0.47083,15.0488 -2.75271,15.0488 -2.30514,0 -2.69028,-2.36151 -2.36877,-14.52465 l 0.38394,-14.52464 h -11.2756 -11.27559 l -0.47867,35.1616 c -0.26325,19.33887 -0.0755,36.21234 0.41735,37.49656 0.64207,1.67321 3.96697,2.18625 11.73156,1.81023 l 10.83553,-0.52473 z m 95.22573,15.13206 c 2.90073,-2.6251 3.21962,-6.17857 3.21962,-35.87596 0,-27.49749 -0.4484,-33.33441 -2.70463,-35.20692 -3.18933,-2.6469 -25.9743,-4.42497 -35.00175,-2.73141 -10.18862,1.91141 -11.5894,6.67732 -11.5894,39.43132 0,25.68025 0.30458,28.40623 3.64891,32.65785 3.5116,4.4643 4.31791,4.63884 21.42828,4.63884 14.07324,0 18.45049,-0.60736 20.99897,-2.91372 z m 77.94374,-0.99915 c 1.71276,-2.44532 2.74067,-7.72778 2.74067,-14.08451 V 476.29361 H 677.5866 666.14294 v 8.80282 c 0,6.71615 -0.6366,8.80282 -2.68554,8.80282 -2.31388,0 -2.61845,-3.83764 -2.20071,-27.72887 0.29706,-16.98898 1.16675,-27.72888 2.24541,-27.72888 0.96831,0 2.00204,3.76321 2.29716,8.36268 l 0.5366,8.36267 h 11.34721 11.3472 v -9.35112 c 0,-14.96048 -3.05263,-17.05733 -24.83222,-17.05733 -9.70903,0 -19.18521,0.82013 -21.05817,1.8225 -3.18729,1.7058 -3.40539,4.01162 -3.40539,36.00407 0,30.69655 0.31412,34.36453 3.08099,35.97607 1.69454,0.98699 11.55278,1.81861 21.90722,1.84805 17.48989,0.0498 19.02075,-0.22421 21.5669,-3.85933 z m 53.30097,-9.7315 3.70639,-13.64436 0.15545,13.64436 0.15546,13.64437 h 10.56338 10.56338 V 466.61052 428.7584 h -10.31824 -10.31824 l -3.89802,12.76409 c -2.14391,7.02024 -4.17231,13.55634 -4.50756,14.52465 -0.33524,0.96831 -0.67207,-4.77553 -0.74852,-12.76409 l -0.13914,-14.52465 h -10.56338 -10.56338 v 37.85212 37.85211 h 11.10301 11.10301 z m 74.4397,-3.96126 c 0,-10.56339 0.70422,-17.60564 1.76056,-17.60564 1.05634,0 1.76056,7.04225 1.76056,17.60564 v 17.60563 h 10.56338 10.56338 V 466.61052 428.7584 h -10.56338 -10.56338 v 14.96479 c 0,19.27097 -3.21431,19.63465 -3.89007,0.44014 l -0.51134,-14.52464 h -11.08007 -11.08007 l 0.0382,36.53169 c 0.0211,20.09243 0.0555,36.92781 0.0766,37.41197 0.0211,0.48415 5.18793,0.88028 11.48194,0.88028 h 11.44366 V 486.857 Z M 317.55139,407.63164 c 0,-5.08607 -0.29342,-5.28169 -7.92253,-5.28169 h -7.92254 v -11.44366 -11.44366 h 7.92254 c 7.62911,0 7.92253,-0.19562 7.92253,-5.28169 0,-5.08608 -0.29342,-5.28169 -7.92253,-5.28169 h -7.92254 v -10.56338 -10.56338 h 7.92254 c 7.27699,0 7.92253,-0.35863 7.92253,-4.40141 0,-4.3688 -0.11737,-4.40141 -15.84507,-4.40141 h -15.84507 v 36.97183 36.97183 h 15.84507 15.84507 z m 28.395,-4.84155 0.22597,-10.12324 1.73443,10.12324 1.73444,10.12324 h 8.72161 c 7.44141,0 8.60261,-0.45223 7.91093,-3.08098 -7.55634,-28.71787 -8.04922,-34.39153 -4.51106,-51.92754 1.8082,-8.96186 3.29579,-16.9319 3.30576,-17.71118 0.01,-0.77929 -3.74507,-1.17542 -8.34454,-0.88028 -8.28695,0.53174 -8.37237,0.60037 -9.43327,7.57886 l -1.07059,7.04225 -0.24983,-7.48239 -0.24983,-7.4824 h -8.80282 -8.80282 v 36.97183 36.97183 h 8.80282 8.80282 z m 69.21645,6.21037 c 2.21258,-3.15891 2.74067,-9.52887 2.74067,-33.05896 0,-37.33257 0.19755,-36.97183 -20.24648,-36.97183 -20.48983,0 -20.24648,-0.45271 -20.24648,37.66509 0,37.01532 -0.41469,36.27857 20.4195,36.27857 13.08326,0 14.8755,-0.40459 17.33279,-3.91287 z m 30.90968,-12.81248 c 0,-9.97653 0.7104,-16.72535 1.76056,-16.72535 1.05016,0 1.76057,6.74882 1.76057,16.72535 v 16.72535 h 8.83854 8.83853 l -0.47586,-36.53169 -0.47586,-36.53169 h -7.92254 -7.92253 l -0.50868,15.40493 c -0.27979,8.47271 -1.23926,15.40493 -2.13217,15.40493 -0.8929,0 -1.85237,-6.93222 -2.13216,-15.40493 l -0.50868,-15.40493 h -7.92254 -7.92253 l -0.47587,36.53169 -0.47586,36.53169 h 8.83854 8.83854 z m 71.25761,11.53109 c 2.07382,-4.01033 2.68605,-11.50852 2.68605,-32.89709 0,-26.02007 -0.23252,-27.95034 -3.82801,-31.77757 -3.3631,-3.57984 -5.48611,-4.07474 -17.47989,-4.07474 -19.7569,0 -19.18506,-1.1215 -19.18506,37.62576 0,22.61345 0.62402,32.71657 2.11268,34.20523 1.32215,1.32214 7.89292,2.11267 17.56042,2.11267 15.32572,0 15.46896,-0.041 18.13381,-5.19426 z m 32.98172,-8.4501 0.51419,-13.64437 2.32196,10.56338 c 3.85278,17.52766 3.29357,16.72535 11.65732,16.72535 h 7.58003 l 4.59159,-18.04577 4.59158,-18.04578 -0.40646,18.0475 -0.40644,18.04749 8.36267,-0.002 8.36268,-0.002 v -36.97183 -36.97183 h -9.72084 c -11.37191,0 -10.89809,-0.66174 -17.4959,24.435 -2.38759,9.08187 -4.65287,16.82428 -5.03396,17.20537 -0.3811,0.38111 -2.07324,-3.88049 -3.7603,-9.47021 -1.68708,-5.58972 -4.69314,-15.15069 -6.68013,-21.2466 l -3.61273,-11.08349 -9.85864,0.52011 -9.85863,0.5201 -0.47586,36.53169 -0.47586,36.53169 h 9.64477 9.64475 z m 77.97898,-23.32747 v -36.09155 h -8.80282 -8.80281 l -0.47615,36.62495 -0.47614,36.62495 9.27896,-0.5334 9.27896,-0.5334 z m 49.77164,0.44014 -0.47587,-36.53169 h -7.92253 -7.92254 l -0.49602,20.68662 c -0.2728,11.37764 -1.23797,20.68662 -2.14482,20.68662 -0.90685,0 -1.87203,-9.30898 -2.14483,-20.68662 l -0.49602,-20.68662 h -7.92253 -7.92254 l -0.48848,25.08803 -0.48847,25.08803 h 10.61171 10.61172 v 11.44366 11.44366 h 8.83854 8.83854 z m 30.671,19.3662 0.33699,-17.16549 0.98343,16.72535 0.98342,16.72535 9.27896,0.5334 9.27896,0.5334 -0.47614,-36.62495 -0.47615,-36.62495 -5.05428,-0.5776 c -2.77985,-0.3177 -6.93919,-0.10458 -9.24295,0.47368 -3.97696,0.99815 -4.2055,1.82827 -4.52138,16.42267 l -0.33269,15.37139 -0.98773,-15.84507 -0.98773,-15.84507 -6.72498,-0.55375 c -11.58266,-0.95371 -11.76093,-0.38607 -11.76093,37.44773 0,18.6021 0.52817,34.35016 1.17371,34.99569 0.64553,0.64554 5.00292,1.17371 9.6831,1.17371 h 8.50938 z m 51.74882,12.32394 c 3.40211,-15.02082 3.92998,-15.70193 4.09342,-5.28169 l 0.15878,10.12324 h 9.71882 9.71882 l -0.47586,-36.53169 -0.47586,-36.53169 h -8.52636 c -8.36528,0 -8.57267,0.1331 -10.97702,7.04226 -1.34786,3.87324 -2.59576,8.62676 -2.77312,10.56338 -0.17736,1.93662 -0.78349,-1.2324 -1.34694,-7.04226 l -1.02445,-10.56338 h -7.92254 -7.92253 l -0.47586,36.53169 -0.47587,36.53169 h 8.805 c 8.1659,0 8.88458,-0.35141 9.90157,-4.84155 z m 53.72347,-0.88028 c 0.0965,-3.147 0.75003,-7.70246 1.45225,-10.12324 1.03661,-3.57352 1.52416,-2.49725 2.59205,5.72183 l 1.31526,10.12324 h 9.55643 c 6.48026,0 9.55107,-0.70839 9.5398,-2.2007 -0.009,-1.21039 -1.90116,-9.60171 -4.20452,-18.6474 l -4.18794,-16.44669 4.08883,-16.91919 c 2.24886,-9.30556 3.69802,-17.55156 3.22036,-18.32443 -0.47768,-0.77289 -4.69824,-1.40525 -9.37905,-1.40525 -9.44199,0 -10.56514,1.25416 -10.77159,12.0278 -0.0998,5.21433 -0.41514,5.77997 -1.63681,2.93699 -0.8322,-1.93662 -1.56877,-5.61507 -1.63681,-8.17431 -0.0681,-2.55926 -1.37692,-5.13409 -2.9086,-5.72183 -4.04359,-1.55168 -14.46385,-1.30995 -15.49561,0.35947 -0.48544,0.78547 0.69326,8.50994 2.61933,17.16549 3.68417,16.55629 3.60905,19.99658 -0.90099,41.26555 -1.53996,7.26232 -2.80086,13.40228 -2.802,13.64436 -10e-4,0.24208 4.35531,0.44014 9.68102,0.44014 h 9.6831 l 0.17552,-5.72183 z M 662.62182,318.72319 c 0,-5.86854 0.29343,-6.16197 6.16197,-6.16197 5.86854,0 6.16197,0.29343 6.16197,6.16197 v 6.16197 h 9.28007 9.28009 l -0.36345,-9.24295 c -0.1999,-5.08363 -1.18974,-13.99648 -2.19965,-19.80634 -1.0099,-5.80986 -3.13683,-21.45687 -4.72651,-34.77113 L 683.32599,236.857 h -14.52847 -14.52849 l -0.99818,6.60211 c -0.54898,3.63116 -1.96414,17.69366 -3.14476,31.25 -1.18063,13.55634 -2.97605,25.71737 -3.98984,27.02454 -1.36306,1.75748 -2.25482,18.31377 -1.22331,22.71137 0.0569,0.24208 4.06451,0.44014 8.90606,0.44014 h 8.80282 z m -357.39437,-21.12676 0.88028,-14.08451 3.52113,14.08451 3.52112,14.08451 7.49851,0.54215 c 5.02059,0.36301 7.73974,-0.21879 8.22854,-1.76057 0.40152,-1.26648 2.17684,-8.64074 3.94516,-16.38722 l 3.21512,-14.0845 0.88028,15.84507 0.88028,15.84507 8.36268,0.5366 8.36267,0.5366 V 274.80557 236.857 h -11.09334 -11.09335 l -3.86273,15.55369 c -2.1245,8.55454 -4.89615,18.53868 -6.15923,22.18699 l -2.2965,6.63328 -6.07489,-22.18608 -6.07489,-22.18607 -11.00352,-9.2e-4 -11.00352,-8.9e-4 v 36.67839 c 0,20.17314 0.5647,37.2431 1.25488,37.93328 0.69018,0.69019 4.84951,1.0203 9.24295,0.73357 l 7.98809,-0.5213 z m 76.14437,12.76409 c -0.24208,-0.72624 -0.44015,-17.56162 -0.44015,-37.41198 V 236.857 h -8.80281 -8.80282 v 37.94411 37.94412 l 9.24296,-0.53214 c 5.08363,-0.29268 9.04489,-1.12634 8.80282,-1.85257 z m 23.29392,-2.20071 c 2.8847,-13.8941 3.34421,-14.45204 4.34988,-5.28169 l 0.96535,8.80282 8.36268,0.5366 8.36267,0.5366 0.19148,-14.62111 0.1915,-14.62111 2.93176,14.08451 2.93176,14.08451 9.2007,0.53215 c 6.36099,0.3679 9.20069,-0.13134 9.20069,-1.61757 0,-1.18235 -2.04287,-9.89477 -4.53972,-19.36097 l -4.5397,-17.21125 3.78384,-15.50217 c 2.08111,-8.52619 4.17738,-16.88861 4.65836,-18.58315 0.75726,-2.66789 -0.42901,-3.08098 -8.84746,-3.08098 -9.58442,0 -9.73646,0.081 -10.7469,5.72183 -4.04236,22.56706 -4.01713,22.52031 -4.2234,7.82607 l -0.19291,-13.74083 -8.36267,0.5366 c -8.29638,0.53235 -8.37078,0.59243 -9.38481,7.57886 l -1.02215,7.04225 -1.40357,-7.48239 -1.40359,-7.48239 h -9.45808 c -10.8016,0 -11.36664,1.17563 -6.95127,14.46311 6.68264,20.11062 6.75574,21.5549 1.9784,39.0909 -6.14668,22.56241 -6.2264,22.15021 4.28406,22.15021 7.9365,0 8.85606,-0.41797 9.6831,-4.40141 z m 69.72322,-13.64436 c -0.22158,-10.75129 0.31882,-17.1655 1.4462,-17.1655 1.06875,0 2.0047,6.97347 2.30389,17.1655 l 0.50389,17.16549 h 8.80282 8.80282 l 0.47515,-37.41197 0.47516,-37.41197 h -9.71811 -9.71812 v 15.84507 c 0,9.38966 -0.71727,15.84507 -1.76056,15.84507 -1.04329,0 -1.76057,-6.45541 -1.76057,-15.84507 V 236.857 h -8.80281 -8.80282 v 37.94411 37.94412 l 9.05343,-0.53214 9.05344,-0.53215 z m 46.31497,7.92253 c 1.78956,-10.54873 6.33847,-13.05986 6.37854,-3.52113 0.0503,12.00453 1.32929,13.64437 10.64077,13.64437 4.67148,0 8.8781,-0.62217 9.34808,-1.38259 0.46997,-0.76042 -0.20389,-8.88102 -1.49744,-18.04577 -1.29356,-9.16476 -3.32161,-25.57604 -4.50677,-36.46953 L 538.91229,236.857 h -14.48734 -14.48736 l -1.23778,10.12323 c -2.78139,22.74752 -6.22148,56.20967 -6.25426,60.8359 -0.034,4.79667 0.20438,4.92266 8.32767,4.40141 l 8.36268,-0.5366 z m 50.00889,-2.64084 0.52058,-11.88381 h 5.28868 c 6.43588,0 14.8554,-4.12185 16.34414,-8.00141 0.60149,-1.56748 1.09362,-10.16218 1.09362,-19.09934 0,-22.74754 -1.24642,-23.95558 -24.71648,-23.95558 h -17.53704 v 36.67839 c 0,20.17314 0.5647,37.2431 1.25488,37.93328 0.69018,0.69019 4.84951,1.0203 9.24296,0.73357 l 7.98808,-0.5213 z m 65.80206,9.85037 c 2.89621,-2.62104 3.21961,-6.15782 3.21961,-35.21127 0,-30.46907 -0.20943,-32.50699 -3.69945,-35.99701 -3.26125,-3.26125 -5.34043,-3.62491 -17.55344,-3.0703 -20.07387,0.9116 -19.99494,0.78303 -20.67017,33.67965 -0.86991,42.38224 -0.31854,43.51264 21.22357,43.51264 10.79868,0 15.0418,-0.70729 17.47988,-2.91371 z m 80.6844,-14.69192 c 0,-10.56338 0.70423,-17.60564 1.76056,-17.60564 1.05696,0 1.76057,7.07293 1.76057,17.69764 v 17.69764 l 9.24296,-0.53214 9.24295,-0.53215 0.47516,-37.41197 0.47516,-37.41197 h -9.71812 -9.71811 v 15.94897 c 0,10.18433 -0.63634,15.55569 -1.76057,14.86088 -0.96831,-0.59845 -1.76056,-7.77549 -1.76056,-15.94897 V 236.857 h -8.80282 -8.80281 v 37.85211 37.85211 h 8.80281 8.80282 z m 49.57463,7.04225 3.02715,-9.6831 0.31065,7.04226 c 0.17077,3.87323 0.41731,8.23063 0.54769,9.68309 0.17627,1.9637 2.49423,2.64085 9.03988,2.64085 h 8.80282 l 0.47516,-37.41197 0.47515,-37.41197 h -9.59329 -9.59329 l -1.9969,10.12323 c -2.90671,14.73557 -3.24166,14.90925 -3.39544,1.76057 l -0.139,-11.8838 h -8.80282 -8.80281 v 37.94857 37.94857 l 8.30894,-0.5366 8.30895,-0.5366 z m 44.89004,8.36268 c 0.74943,-1.21039 1.8545,-5.36972 2.4557,-9.24296 1.16794,-7.5244 2.44007,-6.07678 4.25463,4.84155 l 1.09724,6.60211 h 9.60331 c 11.45741,0 11.30815,0.64463 5.29945,-22.88732 l -4.2707,-16.72536 3.25783,-13.20422 c 1.7918,-7.26232 3.73618,-15.38292 4.32083,-18.04578 l 1.06299,-4.84154 h -10.59692 -10.59692 l -0.12376,5.72183 c -0.0681,3.147 -0.80462,7.30633 -1.63682,9.24295 -1.22167,2.84298 -1.53692,2.27735 -1.63681,-2.93699 -0.20782,-10.84691 -1.29784,-12.02779 -11.10229,-12.02779 h -8.84127 l 1.13067,8.52345 c 0.62189,4.6879 2.33673,13.15376 3.81078,18.81304 1.47405,5.65926 2.24926,11.41234 1.72267,12.7846 -1.66026,4.32658 -6.20755,27.48528 -6.20905,31.62186 -0.001,3.51354 0.88226,3.96127 7.81719,3.96127 4.35447,0 8.42236,-0.97505 9.18125,-2.2007 z"
     id="path38"
     inkscape:connector-curvature="0"
     sodipodi:nodetypes="ccssccsccsscscscccsscccccccsscsscccssssssscscssscssccscsssscccccsssssccssscssscccscscscccscccscsccsscccscccccccccccsscccccccssscccscscccsccscsccscccssssccccsscscccccccccccccscccccccccccsscccccccssccccsscccsscccssscccssscccccsccccscsccsccccccccccsssssssssccccccccsccccccccssscsscssccsscccccccccscccccccccccccccccccccccccsssccccccccccccccccccccccsccccscscccscccccscsscccccsccsccscccscscccccsscscccssscccscsccccsccscscccccsscccccccccsscccccscccccscccccscscccccccccsccscscccsccccscssscsscccccccsssccccccccccscsscccsccccccscsscscccccssssscssscccccccscscccccccscccsscccccccccccccccccccsscssccccccsccsccsc" />
  <path
     style="fill:#000000;stroke-width:1.76056337"
     d="m 440.52014,185.80066 c -0.59727,-2.28397 -2.40143,-3.52113 -5.13491,-3.52113 -7.29165,0 -8.43947,-3.00387 -8.43947,-22.08629 0,-19.29184 1.90458,-23.68836 10.26187,-23.68836 2.10245,0 3.82264,-0.79225 3.82264,-1.76056 0,-0.96831 1.98063,-1.76056 4.4014,-1.76056 2.42078,0 4.40141,0.79225 4.40141,1.76056 0,0.96831 2.27976,1.76056 5.06612,1.76056 8.18424,0 9.18753,2.89219 8.63767,24.89988 l -0.49956,19.99449 -5.91968,0.56644 c -4.07424,0.38986 -6.19645,1.62478 -6.80745,3.96127 -1.21276,4.63756 -8.56907,4.54266 -9.79004,-0.1263 z m 0.51013,-26.55517 c 0,-13.42489 -0.53646,-17.57101 -2.20071,-17.00848 -2.14669,0.72561 -3.55493,27.36806 -1.72102,32.56013 2.31092,6.54254 3.92173,0.15486 3.92173,-15.55165 z m 13.20422,0.44014 c 0,-21.83556 -3.36431,-21.21281 -4.04649,0.74903 -0.41182,13.25808 -0.0313,16.74874 1.76057,16.15145 1.65252,-0.55085 2.28592,-5.23374 2.28592,-16.90048 z"
     id="path40"
     inkscape:connector-curvature="0" />
  <path
     style="fill:#000000;stroke-width:1.76056337"
     d="m 470.99484,187.12108 c 0.0192,-1.21039 1.19188,-12.89613 2.60585,-25.96831 1.41397,-13.07218 2.5866,-24.3618 2.60585,-25.08803 0.0192,-0.72623 3.45911,-1.32042 7.64415,-1.32042 h 7.60915 l 2.01566,16.28521 c 1.10861,8.95687 2.47736,21.2368 3.04165,27.28873 1.00968,10.82861 0.95624,11.00352 -3.36161,11.00352 -3.90169,0 -4.44756,-0.82698 -4.92897,-7.4672 -0.38555,-5.31787 -1.3926,-7.62857 -3.4987,-8.02781 -2.28996,-0.4341 -3.22899,1.25098 -4.16117,7.4672 -1.04238,6.95114 -1.76734,8.02781 -5.40535,8.02781 -2.31083,0 -4.18576,-0.99031 -4.16651,-2.2007 z m 15.81007,-21.32118 c 0,-1.31732 -0.52629,-6.23484 -1.16953,-10.92784 -0.88715,-6.47243 -1.49492,-7.70079 -2.51711,-5.08727 -0.74116,1.89499 -1.40325,6.81252 -1.4713,10.92784 -0.0915,5.5323 0.56452,7.48239 2.5171,7.48239 1.45246,0 2.64084,-1.0778 2.64084,-2.39512 z"
     id="path42"
     inkscape:connector-curvature="0" />
  <path
     style="fill:#000000;stroke-width:1.76056337"
     d="m 503.82369,188.14807 c -0.64554,-0.64553 -1.17371,-12.92546 -1.17371,-27.28873 v -26.11502 h 5.28169 c 5.23534,0 5.28327,0.0888 5.46143,10.12324 0.15407,8.67792 0.39281,9.36916 1.67219,4.84155 0.82086,-2.90493 1.94346,-7.46039 2.49466,-10.12324 0.76825,-3.71139 2.02178,-4.84155 5.37006,-4.84155 4.96862,0 5.14005,1.00387 2.43938,14.28435 -1.06067,5.21579 -1.92483,10.27551 -1.92036,11.24382 0.0104,2.23858 3.75234,21.88577 4.94592,25.96831 0.71393,2.44193 -0.17729,3.08098 -4.29671,3.08098 -4.95069,0 -5.25239,-0.43958 -6.3542,-9.25812 -1.85557,-14.85153 -4.47252,-16.37722 -4.50372,-2.62568 -0.0256,11.26829 -0.23973,11.8838 -4.13494,11.8838 -2.25939,0 -4.63615,-0.52817 -5.28169,-1.17371 z"
     id="path44"
     inkscape:connector-curvature="0" />
  <path
     style="fill:#000000;stroke-width:1.76056337"
     d="m 536.10069,187.11663 c 0,-1.46622 1.58451,-3.08022 3.52113,-3.58666 4.66599,-1.22018 4.47989,-4.92706 -1.45483,-28.97931 l -4.88708,-19.80634 h 4.74316 c 5.36597,0 6.27266,1.61427 7.93185,14.12187 1.46409,11.03686 3.05591,9.80909 4.22041,-3.2552 0.83924,-9.41529 1.17621,-10.01913 5.89237,-10.55898 4.12438,-0.4721 4.84477,-0.009 4.10495,2.64085 -0.4935,1.76739 -2.25115,12.50889 -3.90589,23.87001 -1.65473,11.36112 -3.90068,21.87657 -4.991,23.36766 -2.87079,3.92603 -15.17507,5.69857 -15.17507,2.1861 z"
     id="path46"
     inkscape:connector-curvature="0" />
  <path
     style="fill:#000000;stroke-width:1.76056337"
     d="m 566.03027,188.12636 c 0,-0.65749 0.75413,-3.62844 1.67585,-6.60212 0.92172,-2.97367 2.6009,-14.71566 3.73153,-26.0933 l 2.05568,-20.68662 h 8.39251 8.39251 l 1.03916,7.48239 c 0.57153,4.11532 1.5665,16.39525 2.21104,27.28874 l 1.17188,19.80633 h -4.46362 c -5.94248,0 -6.60091,-2.38516 -6.60091,-23.91159 0,-10.08806 -0.67186,-18.34193 -1.49302,-18.34193 -0.82116,0 -2.00916,8.51673 -2.64001,18.92606 -0.89793,14.81629 -1.7937,19.40394 -4.12517,21.12676 -3.1674,2.34053 -9.34743,3.00517 -9.34743,1.00528 z"
     id="path48"
     inkscape:connector-curvature="0" />
  <path
     style="fill:#000000;stroke-width:1.76056337"
     d="m 597.72041,162.03305 v -27.28873 h 5.28169 c 5.27572,0 5.28169,0.0118 5.28169,10.4571 v 10.4571 l 6.60211,0.54642 6.60211,0.54642 0.52148,14.04865 c 0.62188,16.75363 -0.80457,18.52177 -14.94248,18.52177 h -9.3466 z m 15.48439,8.22025 c -0.3105,-5.79799 -1.40524,-9.99477 -2.72031,-10.42857 -1.62412,-0.53575 -2.2007,2.59783 -2.2007,11.96028 0,11.24172 0.30974,12.42916 2.7203,10.42857 1.98694,-1.64901 2.58023,-4.87337 2.20071,-11.96028 z"
     id="path50"
     inkscape:connector-curvature="0" />
  <path
     style="fill:#000000;stroke-width:1.76056337"
     d="m 634.69224,164.6739 c 0,-23.47418 -0.16767,-24.64789 -3.52113,-24.64789 -1.95618,0 -3.52113,-1.17371 -3.52113,-2.64085 0,-2.07656 2.44523,-2.64084 11.44367,-2.64084 8.99843,0 11.44366,0.56428 11.44366,2.64084 0,1.46714 -1.56495,2.64085 -3.52113,2.64085 -3.35345,0 -3.52112,1.17371 -3.52112,24.64789 v 24.64788 h -4.40141 -4.40141 z"
     id="path52"
     inkscape:connector-curvature="0" />
  <path
     style="fill:#000000;stroke-width:1.76056337"
     d="m 655.819,162.03305 v -27.28873 h 10.56338 c 8.21596,0 10.56338,0.58685 10.56338,2.64084 0,1.8444 -1.85837,2.64085 -6.16197,2.64085 h -6.16197 v 8.80282 8.80281 h 6.16197 c 4.3036,0 6.16197,0.79645 6.16197,2.64085 0,1.85147 -1.86813,2.64084 -6.24983,2.64084 h -6.24983 l 0.528,10.12324 c 0.52201,10.00836 0.59293,10.1295 6.24983,10.67493 3.5442,0.34172 5.72183,1.51429 5.72183,3.08098 0,1.91766 -2.55447,2.5293 -10.56338,2.5293 H 655.819 Z"
     id="path54"
     inkscape:connector-curvature="0" />
  <path
     style="fill:#000000;stroke-width:1.76056337"
     d="m 689.2697,165.38935 c 0,-22.45178 -0.21784,-23.98939 -3.52112,-24.85322 -1.93662,-0.50644 -3.52113,-2.01677 -3.52113,-3.3563 0,-1.82384 2.87403,-2.43551 11.44366,-2.43551 8.99844,0 11.44366,0.56428 11.44366,2.64084 0,1.46714 -1.56494,2.64085 -3.52112,2.64085 -3.35346,0 -3.52113,1.17371 -3.52113,24.64789 v 24.64788 h -4.40141 -4.40141 z"
     id="path56"
     inkscape:connector-curvature="0" />
  <path
     style="fill:#000000;stroke-width:1.76056337"
     d="m 452.96193,614.43497 c -1.8165,-1.86786 0.11007,-4.33854 3.38308,-4.33854 1.53065,0 3.71605,-1.27602 4.85644,-2.83561 1.65331,-2.26103 1.02595,-5.73925 -3.09609,-17.16549 -2.84325,-7.88144 -6.23865,-17.73934 -7.54533,-21.90646 l -2.37578,-7.57658 8.30681,0.53433 8.30681,0.53432 1.76057,10.86645 c 2.12821,13.13566 3.83575,15.4217 5.16816,6.91908 0.54659,-3.48803 1.42583,-9.11476 1.95387,-12.50384 0.93114,-5.97641 1.19624,-6.16197 8.80281,-6.16197 4.31352,0 7.84276,0.7891 7.84276,1.75355 0,0.96445 -1.51678,6.31217 -3.37063,11.8838 -1.85384,5.57164 -5.03822,15.67603 -7.0764,22.4542 -2.03818,6.77817 -4.35884,13.35872 -5.15702,14.62345 -1.61021,2.55141 -19.75102,4.98516 -21.76006,2.91931 z"
     id="path58"
     inkscape:connector-curvature="0" />
  <path
     style="fill:#000000;stroke-width:1.76056337"
     d="m 509.69224,612.16783 c 0,-0.90869 2.01795,-7.01338 4.48434,-13.56596 l 4.48433,-11.91379 -4.48433,-11.20167 c -2.46639,-6.16092 -4.48434,-11.98559 -4.48434,-12.94371 0,-0.95812 3.48612,-1.74204 7.74693,-1.74204 h 7.74694 l 2.11306,8.80824 c 2.92758,12.20352 5.28039,12.63963 5.28039,0.97876 v -9.787 h 7.04226 7.04225 l 0.0535,11.00352 c 0.0442,9.08742 0.40224,10.40229 2.05605,7.55085 1.10138,-1.89896 2.9429,-6.65248 4.09226,-10.56338 1.96299,-6.67939 2.53242,-7.14355 9.38761,-7.65208 6.13183,-0.45487 7.29786,-0.0189 7.29786,2.72887 0,1.79864 -0.6613,4.02289 -1.46957,4.94278 -0.80826,0.91989 -2.78604,5.25668 -4.39505,9.6373 -2.80551,7.63812 -2.77413,8.36016 0.7651,17.60564 6.67779,17.44426 6.66109,17.5634 -2.46302,17.5634 -7.8985,0 -7.98389,-0.0643 -9.13537,-6.87987 -0.6393,-3.78393 -2.26824,-8.33939 -3.61989,-10.12324 -2.19552,-2.89757 -2.46351,-2.16405 -2.51353,6.87987 l -0.056,10.12324 h -7.04225 -7.04226 v -9.6831 c 0,-5.3257 -0.69078,-9.6831 -1.53508,-9.6831 -0.8443,0 -2.68786,4.15933 -4.0968,9.24296 -2.5255,9.11228 -2.66559,9.25061 -9.90858,9.78433 -4.04077,0.29775 -7.34686,-0.20212 -7.34686,-1.11082 z"
     id="path60"
     inkscape:connector-curvature="0" />
  <path
     style="fill:#000000;stroke-width:1.76056337"
     d="m 590.67815,587.20911 v -26.40845 h 7.92254 7.92253 v 11.44366 c 0,10.26995 0.36114,11.44366 3.52113,11.44366 3.15999,0 3.52113,-1.17371 3.52113,-11.44366 v -11.44366 h 7.92253 7.92254 v 26.40845 26.40845 h -7.92254 -7.92253 v -12.32395 c 0,-11.15023 -0.33535,-12.32394 -3.52113,-12.32394 -3.18578,0 -3.52113,1.17371 -3.52113,12.32394 v 12.32395 h -7.92253 -7.92254 z"
     id="path62"
     inkscape:connector-curvature="0" />
  <path
     style="fill:#000000;stroke-width:1.76056337"
     d="m 654.05844,612.98358 c 0,-1.65068 1.41565,-2.88715 3.30555,-2.88715 1.81806,0 4.33256,-1.23746 5.58779,-2.74992 2.42403,-2.92078 1.5155,-6.25488 -9.47116,-34.75675 l -4.61737,-11.9785 8.31942,0.53484 8.31943,0.53484 1.76056,10.86645 c 0.96831,5.97655 2.30268,11.40423 2.96527,12.06152 1.1425,1.13335 3.25115,-5.40523 5.83276,-18.08642 1.08052,-5.30762 1.67464,-5.72183 8.2071,-5.72183 7.00821,0 7.03667,0.0276 5.88776,5.72183 -0.63496,3.14701 -3.07467,12.17443 -5.42157,20.06094 -2.3469,7.88651 -4.26709,15.52321 -4.26709,16.97045 0,6.07485 -5.97613,10.21204 -16.28522,11.27402 -8.6325,0.88927 -10.12323,0.61768 -10.12323,-1.84432 z"
     id="path64"
     inkscape:connector-curvature="0" />
  <path
     style="fill:#000000;stroke-width:0.82029837;paint-order:markers fill stroke"
     d="m 587.89376,437.9635 c 1.66466,-0.29222 2.16122,-2.98189 4.80152,1.41984 2.64031,4.40172 2.17339,23.60388 2.17339,23.60388 0,0 1.43636,26.82652 -2.94749,30.69064 -4.38384,3.86412 -1.96078,1.68369 -4.41666,-0.39743 -2.45587,-2.08113 -2.17211,-7.92338 -2.71869,-13.0567 -0.54657,-5.13332 -0.12105,-17.63687 -0.12105,-17.63687 0,0 0.51552,-19.44439 2.12562,-23.30941 1.61011,-3.86503 -0.5613,-1.02173 1.10336,-1.31395 z"
     id="rect4602"
     inkscape:connector-curvature="0"
     sodipodi:nodetypes="zzczzzczz" />
  <path
     style="fill:#000000;stroke-width:0.66440952;paint-order:markers fill stroke"
     d="m 441.05132,447.26035 c 1.31862,-0.24201 1.71196,-2.46958 3.80341,1.17591 2.09146,3.64549 1.7216,19.54865 1.7216,19.54865 0,0 1.13778,22.21761 -2.33479,25.41786 -3.47255,3.20025 -1.55318,1.39443 -3.49855,-0.32915 -1.94536,-1.72359 -1.72058,-6.56212 -2.15355,-10.81351 -0.43295,-4.25139 -0.0959,-14.60679 -0.0959,-14.60679 0,0 0.40835,-16.10376 1.68376,-19.30475 1.27541,-3.201 -0.44462,-0.8462 0.874,-1.08822 z"
     id="rect4602-7"
     inkscape:connector-curvature="0"
     sodipodi:nodetypes="zzczzzczz" />
  <path
     style="fill:#000000;stroke-width:0.82029837;paint-order:markers fill stroke"
     d="m 498.97365,349.29451 c 1.66466,-0.29222 2.16122,-2.98189 4.80152,1.41984 2.64031,4.40172 2.17339,23.60388 2.17339,23.60388 0,0 1.43636,26.82652 -2.94749,30.69064 -4.38384,3.86412 -1.96078,1.68369 -4.41666,-0.39743 -2.45587,-2.08113 -2.17211,-7.92338 -2.71869,-13.0567 -0.54657,-5.13332 -0.12105,-17.63687 -0.12105,-17.63687 0,0 0.51552,-19.44439 2.12562,-23.30941 1.61011,-3.86503 -0.5613,-1.02173 1.10336,-1.31395 z"
     id="rect4602-5"
     inkscape:connector-curvature="0"
     sodipodi:nodetypes="zzczzzczz" />
  <path
     style="fill:#000000;stroke-width:0.82029837;paint-order:markers fill stroke"
     d="m 397.30112,348.85437 c 1.66466,-0.29222 2.16122,-2.98189 4.80152,1.41984 2.64031,4.40172 2.17339,23.60388 2.17339,23.60388 0,0 1.43636,26.82652 -2.94749,30.69064 -4.38384,3.86412 -1.96078,1.68369 -4.41666,-0.39743 -2.45587,-2.08113 -2.17211,-7.92338 -2.71869,-13.0567 -0.54657,-5.13332 -0.12105,-17.63687 -0.12105,-17.63687 0,0 0.51552,-19.44439 2.12562,-23.30941 1.61011,-3.86503 -0.5613,-1.02173 1.10336,-1.31395 z"
     id="rect4602-3"
     inkscape:connector-curvature="0"
     sodipodi:nodetypes="zzczzzczz" />
  <path
     style="fill:#000000;stroke-width:0.50388318;paint-order:markers fill stroke"
     d="m 309.54889,437.72413 c 1.56084,-0.11759 2.02644,-1.19997 4.50208,0.57137 2.47566,1.77135 2.03786,9.4987 2.03786,9.4987 0,0 1.34678,10.79556 -2.76368,12.35057 -4.11046,1.555 -1.8385,0.67755 -4.14123,-0.15994 -2.30272,-0.83749 -2.03665,-3.18853 -2.54915,-5.25429 -0.51248,-2.06576 -0.1135,-7.09745 -0.1135,-7.09745 0,0 0.48337,-7.82483 1.99306,-9.3802 1.5097,-1.55537 -0.52629,-0.41116 1.03456,-0.52876 z"
     id="rect4602-0"
     inkscape:connector-curvature="0"
     sodipodi:nodetypes="zzczzzczz" />
  <path
     style="fill:#000000;stroke-width:0.54000103;paint-order:markers fill stroke"
     d="m 309.9979,468.83339 c 1.56085,-0.13505 2.02644,-1.37816 4.50208,0.65622 2.47566,2.03439 2.03786,10.90922 2.03786,10.90922 0,0 1.34678,12.39866 -2.76368,14.18457 -4.11046,1.78592 -1.8385,0.77817 -4.14123,-0.18368 -2.30272,-0.96186 -2.03665,-3.66202 -2.54915,-6.03454 -0.51248,-2.37251 -0.1135,-8.15139 -0.1135,-8.15139 0,0 0.48337,-8.98679 1.99306,-10.77312 1.5097,-1.78633 -0.52629,-0.47222 1.03456,-0.60728 z"
     id="rect4602-8"
     inkscape:connector-curvature="0"
     sodipodi:nodetypes="zzczzzczz" />
  <path
     style="fill:#000000;stroke-width:0.57853717;paint-order:markers fill stroke"
     d="m 523.93862,250.2673 c 1.38783,-0.17435 1.80181,-1.7791 4.00303,0.84712 2.20123,2.62622 1.81196,14.08289 1.81196,14.08289 0,0 1.1975,16.00562 -2.45733,18.31108 -3.65481,2.30547 -1.6347,1.00455 -3.68217,-0.23712 -2.04747,-1.24167 -1.81089,-4.72736 -2.26658,-7.79007 -0.45568,-3.06272 -0.10092,-10.52276 -0.10092,-10.52276 0,0 0.42979,-11.60119 1.77213,-13.90719 1.34236,-2.30601 -0.46795,-0.6096 0.91988,-0.78395 z"
     id="rect4602-01"
     inkscape:connector-curvature="0"
     sodipodi:nodetypes="zzczzzczz" />
  <path
     style="fill:#000000;stroke-width:0.50450307;paint-order:markers fill stroke"
     d="m 572.67118,245.83362 c 0.97509,-0.63875 2.25437,-0.86928 2.89037,0.38273 1.21752,1.53236 1.27162,3.60514 1.52122,5.46716 0.31413,3.04243 0.22561,6.10518 0.28688,9.15597 0.15529,4.46827 0.26699,8.99286 -0.56378,13.40614 -0.2936,1.3212 -0.68259,2.81596 -1.94403,3.53574 -0.59672,0.50936 -1.62282,1.36763 -1.82049,0.0499 -0.93616,-0.86217 -1.8286,-1.85139 -1.93081,-3.2064 -0.31328,-2.02172 -0.41069,-4.0709 -0.62181,-6.10481 -0.20266,-5.50724 0.0448,-11.02627 0.49814,-16.51593 0.23558,-2.13003 0.33949,-4.34646 1.3197,-6.29374 0.11873,-0.80374 -0.3735,0.43376 0.36461,0.12327 z"
     id="rect4602-09"
     inkscape:connector-curvature="0" />
  <path
     style="fill:#000000;stroke-width:0.82029837;paint-order:markers fill stroke"
     d="m 619.57225,245.42126 c 1.66466,-0.29222 2.16122,-2.98189 4.80152,1.41984 2.64031,4.40172 2.17339,23.60388 2.17339,23.60388 0,0 1.43636,26.82652 -2.94749,30.69064 -4.38384,3.86412 -1.96078,1.68369 -4.41666,-0.39743 -2.45587,-2.08113 -2.17211,-7.92338 -2.71869,-13.0567 -0.54657,-5.13332 -0.12105,-17.63687 -0.12105,-17.63687 0,0 0.51552,-19.44439 2.12562,-23.30941 1.61011,-3.86503 -0.5613,-1.02173 1.10336,-1.31395 z"
     id="rect4602-82"
     inkscape:connector-curvature="0"
     sodipodi:nodetypes="zzczzzczz" />
  <path
     style="fill:#000000;stroke-width:0.66469622;paint-order:markers fill stroke"
     d="m 669.4667,259.19919 c 1.52624,-0.20927 1.98151,-2.13547 4.40227,1.01682 2.42077,3.15229 1.99268,16.90392 1.99268,16.90392 0,0 1.31693,19.21182 -2.70241,21.97911 -4.01933,2.76728 -1.79774,1.20578 -4.04942,-0.28462 -2.25167,-1.4904 -1.9915,-5.67433 -2.49263,-9.35056 -0.50113,-3.67622 -0.11099,-12.63065 -0.11099,-12.63065 0,0 0.47266,-13.9251 1.94888,-16.69303 1.47623,-2.76794 -0.51463,-0.73171 1.01162,-0.94099 z"
     id="rect4602-35"
     inkscape:connector-curvature="0"
     sodipodi:nodetypes="zzczzzczz" />
</svg>
